{
  "accessors": [
    {
      "bufferView": 2,
      "componentType": 5126,
      "count": 416,
      "max": [
        1.0,
        1.0,
        5.262146949768066
      ],
      "min": [
        -5.930160045623779,
        -1.1312432289123535,
        -5.262146949768066
      ],
      "type": "VEC3"
    },
    {
      "bufferView": 2,
      "byteOffset": 4992,
      "componentType": 5126,
      "count": 416,
      "max": [
        0.7318751215934753,
        0.9990653991699219,
        0.730412483215332
      ],
      "min": [
        -0.7318751215934753,
        -0.9982265830039978,
        -0.7304116487503052
      ],
      "type": "VEC3"
    },
    {
      "bufferView": 1,
      "componentType": 5126,
      "count": 416,
      "max": [
        0.875,
        1.0
      ],
      "min": [
        0.125,
        0.0
      ],
      "type": "VEC2"
    },
    {
      "bufferView": 0,
      "componentType": 5125,
      "count": 1296,
      "type": "SCALAR"
    },
    {
      "bufferView": 2,
      "byteOffset": 9984,
      "componentType": 5126,
      "count": 827,
      "max": [
        -0.668897271156311,
        3.8313236236572266,
        2.727722644805908
      ],
      "min": [
        -4.288735389709473,
        -0.7921535968780518,
        -2.727722644805908
      ],
      "type": "VEC3"
    },
    {
      "bufferView": 2,
      "byteOffset": 19908,
      "componentType": 5126,
      "count": 827,
      "max": [
        0.9982216954231262,
        0.9988785982131958,
        0.995998203754425
      ],
      "min": [
        -0.9715114831924438,
        -0.9735116362571716,
        -0.996001124382019
      ],
      "type": "VEC3"
    },
    {
      "bufferView": 1,
      "byteOffset": 3328,
      "componentType": 5126,
      "count": 827,
      "max": [
        1.0,
        0.9896954298019409
      ],
      "min": [
        0.0,
        0.056099772453308105
      ],
      "type": "VEC2"
    },
    {
      "bufferView": 0,
      "byteOffset": 5184,
      "componentType": 5125,
      "count": 2244,
      "type": "SCALAR"
    },
    {
      "bufferView": 2,
      "byteOffset": 29832,
      "componentType": 5126,
      "count": 504,
      "max": [
        -0.668897271156311,
        3.8313236236572266,
        2.727722644805908
      ],
      "min": [
        -4.226749420166016,
        2.2760751247406006,
        -2.727722644805908
      ],
      "type": "VEC3"
    },
    {
      "bufferView": 2,
      "byteOffset": 35880,
      "componentType": 5126,
      "count": 504,
      "max": [
        0.9982227087020874,
        0.9988763332366943,
        0.996001124382019
      ],
      "min": [
        -0.9715095162391663,
        -0.23268279433250427,
        -0.9960012435913086
      ],
      "type": "VEC3"
    },
    {
      "bufferView": 1,
      "byteOffset": 9944,
      "componentType": 5126,
      "count": 504,
      "max": [
        1.0,
        0.9358835816383362
      ],
      "min": [
        0.0,
        0.0
      ],
      "type": "VEC2"
    },
    {
      "bufferView": 0,
      "byteOffset": 14160,
      "componentType": 5125,
      "count": 1140,
      "type": "SCALAR"
    },
    {
      "bufferView": 2,
      "byteOffset": 41928,
      "componentType": 5126,
      "count": 1192,
      "max": [
        -4.227151870727539,
        2.506068229675293,
        0.5321524739265442
      ],
      "min": [
        -4.288735389709473,
        2.2763118743896484,
        -0.532152533531189
      ],
      "type": "VEC3"
    },
    {
      "bufferView": 2,
      "byteOffset": 56232,
      "componentType": 5126,
      "count": 1192,
      "max": [
        -0.5177328586578369,
        0.7508801221847534,
        0.5998005867004395
      ],
      "min": [
        -0.9928703308105469,
        -0.6624863147735596,
        -0.7277084589004517
      ],
      "type": "VEC3"
    },
    {
      "bufferView": 1,
      "byteOffset": 13976,
      "componentType": 5126,
      "count": 1192,
      "max": [
        0.28125,
        0.11219966411590576
      ],
      "min": [
        0.21875,
        0.08316028118133545
      ],
      "type": "VEC2"
    },
    {
      "bufferView": 0,
      "byteOffset": 18720,
      "componentType": 5125,
      "count": 1569,
      "type": "SCALAR"
    },
    {
      "bufferView": 2,
      "byteOffset": 70536,
      "componentType": 5126,
      "count": 197,
      "max": [
        -0.8333888053894043,
        -0.6470683813095093,
        2.4779226779937744
      ],
      "min": [
        -4.096772193908691,
        -0.9249789714813232,
        -2.4779226779937744
      ],
      "type": "VEC3"
    },
    {
      "bufferView": 2,
      "byteOffset": 72900,
      "componentType": 5126,
      "count": 197,
      "max": [
        0.9926443696022034,
        -0.0771017074584961,
        0.9970224499702454
      ],
      "min": [
        -0.9926442503929138,
        -0.997090220451355,
        -0.9970232248306274
      ],
      "type": "VEC3"
    },
    {
      "bufferView": 1,
      "byteOffset": 23512,
      "componentType": 5126,
      "count": 197,
      "max": [
        1.0,
        0.9900000095367432
      ],
      "min": [
        0.0,
        0.5
      ],
      "type": "VEC2"
    },
    {
      "bufferView": 0,
      "byteOffset": 24996,
      "componentType": 5125,
      "count": 858,
      "type": "SCALAR"
    }
  ],
  "asset": {
    "extras": {
      "author": "Mr Bat (https://sketchfab.com/mrbat54322)",
      "license": "CC-BY-4.0 (http://creativecommons.org/licenses/by/4.0/)",
      "source": "https://sketchfab.com/3d-models/rocket-low-poly-a7b13eb0227e4401bb548226e06bb86f",
      "title": "Rocket - low poly"
    },
    "generator": "Sketchfab-14.35.0",
    "version": "2.0"
  },
  "bufferViews": [
    {
      "buffer": 0,
      "byteLength": 28428,
      "name": "floatBufferViews",
      "target": 34963
    },
    {
      "buffer": 0,
      "byteLength": 25088,
      "byteOffset": 28428,
      "byteStride": 8,
      "name": "floatBufferViews",
      "target": 34962
    },
    {
      "buffer": 0,
      "byteLength": 75264,
      "byteOffset": 53516,
      "byteStride": 12,
      "name": "floatBufferViews",
      "target": 34962
    }
  ],
  "buffers": [
    {
      "byteLength": 128780,
      "uri": "scene.bin"
    }
  ],
  "materials": [
    {
      "doubleSided": true,
      "name": "Material.001",
      "pbrMetallicRoughness": {
        "baseColorFactor": [
          0.8,
          0.000769958,
          0.0,
          1.0
        ],
        "metallicFactor": 0.0,
        "roughnessFactor": 0.5
      }
    },
    {
      "doubleSided": true,
      "name": "Material.002",
      "pbrMetallicRoughness": {
        "baseColorFactor": [
          1.0,
          0.906859,
          0.879468,
          1.0
        ],
        "metallicFactor": 0.0,
        "roughnessFactor": 0.5
      }
    },
    {
      "doubleSided": true,
      "name": "Material.003",
      "pbrMetallicRoughness": {
        "baseColorFactor": [
          0.8,
          0.0,
          0.00169558,
          1.0
        ],
        "metallicFactor": 0.0,
        "roughnessFactor": 0.5
      }
    },
    {
      "doubleSided": true,
      "name": "Material.004",
      "pbrMetallicRoughness": {
        "baseColorFactor": [
          0.00612777,
          0.00611363,
          0.00637013,
          1.0
        ],
        "metallicFactor": 0.0,
        "roughnessFactor": 0.5
      }
    },
    {
      "doubleSided": true,
      "name": "Material.005",
      "pbrMetallicRoughness": {
        "baseColorFactor": [
          0.0,
          0.0,
          0.0,
          1.0
        ],
        "metallicFactor": 0.0,
        "roughnessFactor": 0.5
      }
    }
  ],
  "meshes": [
    {
      "name": "Object_0",
      "primitives": [
        {
          "attributes": {
            "NORMAL": 1,
            "POSITION": 0,
            "TEXCOORD_0": 2
          },
          "indices": 3,
          "material": 0,
          "mode": 4
        }
      ]
    },
    {
      "name": "Object_1",
      "primitives": [
        {
          "attributes": {
            "NORMAL": 5,
            "POSITION": 4,
            "TEXCOORD_0": 6
          },
          "indices": 7,
          "material": 1,
          "mode": 4
        }
      ]
    },
    {
      "name": "Object_2",
      "primitives": [
        {
          "attributes": {
            "NORMAL": 9,
            "POSITION": 8,
            "TEXCOORD_0": 10
          },
          "indices": 11,
          "material": 2,
          "mode": 4
        }
      ]
    },
    {
      "name": "Object_3",
      "primitives": [
        {
          "attributes": {
            "NORMAL": 13,
            "POSITION": 12,
            "TEXCOORD_0": 14
          },
          "indices": 15,
          "material": 3,
          "mode": 4
        }
      ]
    },
    {
      "name": "Object_4",
      "primitives": [
        {
          "attributes": {
            "NORMAL": 17,
            "POSITION": 16,
            "TEXCOORD_0": 18
          },
          "indices": 19,
          "material": 4,
          "mode": 4
        }
      ]
    }
  ],
  "nodes": [
    {
      "children": [
        1
      ],
      "matrix": [
        1.0,
        0.0,
        0.0,
        0.0,
        0.0,
        2.220446049250313e-16,
        -1.0,
        0.0,
        0.0,
        1.0,
        2.220446049250313e-16,
        0.0,
        0.0,
        0.0,
        0.0,
        1.0
      ],
      "name": "Sketchfab_model"
    },
    {
      "children": [
        2
      ],
      "name": "root"
    },
    {
      "children": [
        3
      ],
      "matrix": [
        1.0,
        0.0,
        0.0,
        0.0,
        0.0,
        2.220446049250313e-16,
        1.0,
        0.0,
        0.0,
        -1.0,
        2.220446049250313e-16,
        0.0,
        0.0,
        0.0,
        0.0,
        1.0
      ],
      "name": "GLTF_SceneRootNode"
    },
    {
      "children": [
        4,
        5,
        6,
        7,
        8
      ],
      "matrix": [
        1.0,
        0.0,
        0.0,
        0.0,
        0.0,
        6.031613349914551,
        0.0,
        0.0,
        0.0,
        0.0,
        0.6584917306900024,
        0.0,
        2.4650800228118896,
        6.85532808303833,
        0.0,
        1.0
      ],
      "name": "Cube.001_0"
    },
    {
      "mesh": 0,
      "name": "Object_4"
    },
    {
      "mesh": 1,
      "name": "Object_5"
    },
    {
      "mesh": 2,
      "name": "Object_6"
    },
    {
      "mesh": 3,
      "name": "Object_7"
    },
    {
      "mesh": 4,
      "name": "Object_8"
    }
  ],
  "scene": 0,
  "scenes": [
    {
      "name": "Sketchfab_Scene",
      "nodes": [
        0
      ]
    }
  ]
}
