{
  "accessors": [
    {
      "bufferView": 2,
      "componentType": 5126,
      "count": 19791,
      "max": [
        51.656890869140625,
        51.72802734375,
        51.613685607910156
      ],
      "min": [
        -51.56731414794922,
        -51.712562561035156,
        -51.61033630371094
      ],
      "type": "VEC3"
    },
    {
      "bufferView": 2,
      "byteOffset": 237492,
      "componentType": 5126,
      "count": 19791,
      "max": [
        0.9998697638511658,
        0.9999829530715942,
        0.9999260902404785
      ],
      "min": [
        -0.9999921917915344,
        -0.9999933838844299,
        -0.9995901584625244
      ],
      "type": "VEC3"
    },
    {
      "bufferView": 3,
      "componentType": 5126,
      "count": 19791,
      "max": [
        0.9999984502792358,
        0.9999971985816956,
        0.9999858140945435,
        1.0
      ],
      "min": [
        -0.8822552561759949,
        -0.9999992251396179,
        -0.8859966993331909,
        1.0
      ],
      "type": "VEC4"
    },
    {
      "bufferView": 1,
      "componentType": 5126,
      "count": 19791,
      "max": [
        0.9820172786712646,
        0.6527938842773438
      ],
      "min": [
        0.005659789778292179,
        0.006391689646989107
      ],
      "type": "VEC2"
    },
    {
      "bufferView": 0,
      "componentType": 5125,
      "count": 113952,
      "type": "SCALAR"
    }
  ],
  "asset": {
    "extras": {
      "author": "mikedludlam (https://sketchfab.com/mikedludlam)",
      "license": "CC-BY-4.0 (http://creativecommons.org/licenses/by/4.0/)",
      "source": "https://sketchfab.com/3d-models/yarn-ball-e14ce723f6e24a9aadac9845ce2e863c",
      "title": "Yarn Ball"
    },
    "generator": "Sketchfab-14.77.0",
    "version": "2.0"
  },
  "bufferViews": [
    {
      "buffer": 0,
      "byteLength": 455808,
      "name": "floatBufferViews",
      "target": 34963
    },
    {
      "buffer": 0,
      "byteLength": 158328,
      "byteOffset": 455808,
      "byteStride": 8,
      "name": "floatBufferViews",
      "target": 34962
    },
    {
      "buffer": 0,
      "byteLength": 474984,
      "byteOffset": 614136,
      "byteStride": 12,
      "name": "floatBufferViews",
      "target": 34962
    },
    {
      "buffer": 0,
      "byteLength": 316656,
      "byteOffset": 1089120,
      "byteStride": 16,
      "name": "floatBufferViews",
      "target": 34962
    }
  ],
  "buffers": [
    {
      "byteLength": 1405776,
      "uri": "scene.bin"
    }
  ],
  "extensionsUsed": [
    "KHR_materials_specular"
  ],
  "images": [
    {
      "uri": "textures/blinn2_baseColor.png"
    },
    {
      "uri": "textures/blinn2_metallicRoughness.png"
    },
    {
      "uri": "textures/blinn2_normal.png"
    }
  ],
  "materials": [
    {
      "extensions": {
        "KHR_materials_specular": {
          "specularColorFactor": [
            1.0,
            1.0,
            1.0
          ],
          "specularFactor": 0.01676195584596067
        }
      },
      "name": "blinn2",
      "normalTexture": {
        "index": 2,
        "scale": 0.8
      },
      "pbrMetallicRoughness": {
        "baseColorTexture": {
          "index": 0
        },
        "metallicFactor": 0.0,
        "metallicRoughnessTexture": {
          "index": 1
        }
      }
    }
  ],
  "meshes": [
    {
      "name": "SM_Globe6HD_retopo_blinn2_0",
      "primitives": [
        {
          "attributes": {
            "NORMAL": 1,
            "POSITION": 0,
            "TANGENT": 2,
            "TEXCOORD_0": 3
          },
          "indices": 4,
          "material": 0,
          "mode": 4
        }
      ]
    }
  ],
  "nodes": [
    {
      "children": [
        1
      ],
      "matrix": [
        1.0,
        0.0,
        0.0,
        0.0,
        0.0,
        2.220446049250313e-16,
        -1.0,
        0.0,
        0.0,
        1.0,
        2.220446049250313e-16,
        0.0,
        0.0,
        0.0,
        0.0,
        1.0
      ],
      "name": "Sketchfab_model"
    },
    {
      "children": [
        2
      ],
      "matrix": [
        0.009999999776482582,
        0.0,
        0.0,
        0.0,
        0.0,
        0.0,
        0.009999999776482582,
        0.0,
        0.0,
        -0.009999999776482582,
        0.0,
        0.0,
        0.0,
        0.0,
        0.0,
        1.0
      ],
      "name": "680aac8cb74f4272958b0d3a8c7d91b3.fbx"
    },
    {
      "children": [
        3
      ],
      "name": "RootNode"
    },
    {
      "children": [
        4
      ],
      "name": "SM_Globe6HD_retopo"
    },
    {
      "mesh": 0,
      "name": "SM_Globe6HD_retopo_blinn2_0"
    }
  ],
  "samplers": [
    {
      "magFilter": 9729,
      "minFilter": 9987,
      "wrapS": 10497,
      "wrapT": 10497
    }
  ],
  "scene": 0,
  "scenes": [
    {
      "name": "Sketchfab_Scene",
      "nodes": [
        0
      ]
    }
  ],
  "textures": [
    {
      "sampler": 0,
      "source": 0
    },
    {
      "sampler": 0,
      "source": 1
    },
    {
      "sampler": 0,
      "source": 2
    }
  ]
}
