{
  "accessors": [
    {
      "bufferView": 2,
      "componentType": 5126,
      "count": 823,
      "max": [
        0.9995636940002441,
        0.6000095009803772,
        0.6000434160232544
      ],
      "min": [
        -1.0009211301803589,
        -0.6041303873062134,
        -0.5999758243560791
      ],
      "type": "VEC3"
    },
    {
      "bufferView": 2,
      "byteOffset": 9876,
      "componentType": 5126,
      "count": 823,
      "max": [
        1.0,
        0.9999904036521912,
        1.0
      ],
      "min": [
        -0.9753915667533875,
        -0.9807851910591125,
        -1.0
      ],
      "type": "VEC3"
    },
    {
      "bufferView": 1,
      "componentType": 5126,
      "count": 823,
      "max": [
        0.9081588387489319,
        0.9997994303703308
      ],
      "min": [
        0.00020056070934515446,
        0.00020053272601217031
      ],
      "type": "VEC2"
    },
    {
      "bufferView": 1,
      "byteOffset": 6584,
      "componentType": 5126,
      "count": 823,
      "max": [
        0.9081588387489319,
        0.9997994303703308
      ],
      "min": [
        0.00020056070934515446,
        0.00020053272601217031
      ],
      "type": "VEC2"
    },
    {
      "bufferView": 1,
      "byteOffset": 13168,
      "componentType": 5126,
      "count": 823,
      "max": [
        0.9081588387489319,
        0.9997994303703308
      ],
      "min": [
        0.00020056070934515446,
        0.00020053272601217031
      ],
      "type": "VEC2"
    },
    {
      "bufferView": 1,
      "byteOffset": 19752,
      "componentType": 5126,
      "count": 823,
      "max": [
        0.9081588387489319,
        0.9997994303703308
      ],
      "min": [
        0.00020056070934515446,
        0.00020053272601217031
      ],
      "type": "VEC2"
    },
    {
      "bufferView": 1,
      "byteOffset": 26336,
      "componentType": 5126,
      "count": 823,
      "max": [
        0.9081588387489319,
        0.9997994303703308
      ],
      "min": [
        0.00020056070934515446,
        0.00020053272601217031
      ],
      "type": "VEC2"
    },
    {
      "bufferView": 1,
      "byteOffset": 32920,
      "componentType": 5126,
      "count": 823,
      "max": [
        0.9081588387489319,
        0.9997994303703308
      ],
      "min": [
        0.00020056070934515446,
        0.00020053272601217031
      ],
      "type": "VEC2"
    },
    {
      "bufferView": 1,
      "byteOffset": 39504,
      "componentType": 5126,
      "count": 823,
      "max": [
        0.9081588387489319,
        0.9997994303703308
      ],
      "min": [
        0.00020056070934515446,
        0.00020053272601217031
      ],
      "type": "VEC2"
    },
    {
      "bufferView": 1,
      "byteOffset": 46088,
      "componentType": 5126,
      "count": 823,
      "max": [
        0.9081588387489319,
        0.9997994303703308
      ],
      "min": [
        0.00020056070934515446,
        0.00020053272601217031
      ],
      "type": "VEC2"
    },
    {
      "bufferView": 1,
      "byteOffset": 52672,
      "componentType": 5126,
      "count": 823,
      "max": [
        0.9081588387489319,
        0.9997994303703308
      ],
      "min": [
        0.00020056070934515446,
        0.00020053272601217031
      ],
      "type": "VEC2"
    },
    {
      "bufferView": 1,
      "byteOffset": 59256,
      "componentType": 5126,
      "count": 823,
      "max": [
        0.9081588387489319,
        0.9997994303703308
      ],
      "min": [
        0.00020056070934515446,
        0.00020053272601217031
      ],
      "type": "VEC2"
    },
    {
      "bufferView": 0,
      "componentType": 5125,
      "count": 3468,
      "type": "SCALAR"
    }
  ],
  "asset": {
    "extras": {
      "author": "NameNotVisible (https://sketchfab.com/jayprataps36)",
      "license": "CC-BY-NC-4.0 (http://creativecommons.org/licenses/by-nc/4.0/)",
      "source": "https://sketchfab.com/3d-models/cheese-25c99bc7f39746bbb7db80a0c911326d",
      "title": "Cheese"
    },
    "generator": "Sketchfab-16.95.0",
    "version": "2.0"
  },
  "bufferViews": [
    {
      "buffer": 0,
      "byteLength": 13872,
      "name": "floatBufferViews",
      "target": 34963
    },
    {
      "buffer": 0,
      "byteLength": 65840,
      "byteOffset": 13872,
      "byteStride": 8,
      "name": "floatBufferViews",
      "target": 34962
    },
    {
      "buffer": 0,
      "byteLength": 19752,
      "byteOffset": 79712,
      "byteStride": 12,
      "name": "floatBufferViews",
      "target": 34962
    }
  ],
  "buffers": [
    {
      "byteLength": 99464,
      "uri": "scene.bin"
    }
  ],
  "images": [
    {
      "uri": "textures/DefaultMaterial_baseColor.png"
    },
    {
      "uri": "textures/DefaultMaterial_metallicRoughness.png"
    }
  ],
  "materials": [
    {
      "doubleSided": true,
      "name": "DefaultMaterial",
      "occlusionTexture": {
        "index": 1
      },
      "pbrMetallicRoughness": {
        "baseColorTexture": {
          "index": 0
        },
        "metallicRoughnessTexture": {
          "index": 1
        },
        "roughnessFactor": 0.6021033303379292
      }
    }
  ],
  "meshes": [
    {
      "name": "Cube_DefaultMaterial_0",
      "primitives": [
        {
          "attributes": {
            "NORMAL": 1,
            "POSITION": 0,
            "TEXCOORD_0": 2,
            "TEXCOORD_1": 3,
            "TEXCOORD_2": 4,
            "TEXCOORD_3": 5,
            "TEXCOORD_4": 6,
            "TEXCOORD_5": 7,
            "TEXCOORD_6": 8,
            "TEXCOORD_7": 9,
            "TEXCOORD_8": 10,
            "TEXCOORD_9": 11
          },
          "indices": 12,
          "material": 0,
          "mode": 4
        }
      ]
    }
  ],
  "nodes": [
    {
      "children": [
        1
      ],
      "matrix": [
        -1.0,
        -1.60812262295773e-16,
        2.8327693431939985e-16,
        0.0,
        2.832769343193999e-16,
        -2.2204460492503128e-16,
        1.0,
        0.0,
        -1.6081226229577292e-16,
        1.0,
        2.2204460492503136e-16,
        0.0,
        0.0,
        0.0,
        0.0,
        1.0
      ],
      "name": "Sketchfab_model"
    },
    {
      "children": [
        2
      ],
      "matrix": [
        0.009999999776482582,
        0.0,
        0.0,
        0.0,
        0.0,
        0.0,
        0.009999999776482582,
        0.0,
        0.0,
        -0.009999999776482582,
        0.0,
        0.0,
        0.0,
        0.0,
        0.0,
        1.0
      ],
      "name": "CHEESE.fbx"
    },
    {
      "children": [
        3
      ],
      "name": "RootNode"
    },
    {
      "children": [
        4
      ],
      "matrix": [
        10.000001907348633,
        0.0,
        0.0,
        0.0,
        0.0,
        -1.3315807953648785e-06,
        -10.000001907348544,
        0.0,
        0.0,
        10.000001907348544,
        -1.3315807953648785e-06,
        0.0,
        0.0,
        0.0,
        0.0,
        1.0
      ],
      "name": "Cube"
    },
    {
      "mesh": 0,
      "name": "Cube_DefaultMaterial_0"
    }
  ],
  "samplers": [
    {
      "magFilter": 9729,
      "minFilter": 9987,
      "wrapS": 10497,
      "wrapT": 10497
    }
  ],
  "scene": 0,
  "scenes": [
    {
      "name": "Sketchfab_Scene",
      "nodes": [
        0
      ]
    }
  ],
  "textures": [
    {
      "sampler": 0,
      "source": 0
    },
    {
      "sampler": 0,
      "source": 1
    }
  ]
}
