{
  "accessors": [
    {
      "bufferView": 2,
      "componentType": 5126,
      "count": 2904,
      "max": [
        1.0,
        1.0,
        1.0
      ],
      "min": [
        -1.0,
        -1.0,
        -1.0
      ],
      "type": "VEC3"
    },
    {
      "bufferView": 2,
      "byteOffset": 34848,
      "componentType": 5126,
      "count": 2904,
      "max": [
        1.0,
        1.0,
        1.0
      ],
      "min": [
        -1.0,
        -1.0,
        -1.0
      ],
      "type": "VEC3"
    },
    {
      "bufferView": 1,
      "componentType": 5126,
      "count": 2904,
      "max": [
        0.875,
        1.0
      ],
      "min": [
        0.125,
        0.0
      ],
      "type": "VEC2"
    },
    {
      "bufferView": 0,
      "componentType": 5125,
      "count": 4356,
      "type": "SCALAR"
    },
    {
      "bufferView": 2,
      "byteOffset": 69696,
      "componentType": 5126,
      "count": 2904,
      "max": [
        1.0,
        1.0,
        1.0
      ],
      "min": [
        -1.0,
        -1.0,
        -1.0
      ],
      "type": "VEC3"
    },
    {
      "bufferView": 2,
      "byteOffset": 104544,
      "componentType": 5126,
      "count": 2904,
      "max": [
        1.0,
        1.0,
        1.0
      ],
      "min": [
        -1.0,
        -1.0,
        -1.0
      ],
      "type": "VEC3"
    },
    {
      "bufferView": 1,
      "byteOffset": 23232,
      "componentType": 5126,
      "count": 2904,
      "max": [
        0.875,
        1.0
      ],
      "min": [
        0.125,
        0.0
      ],
      "type": "VEC2"
    },
    {
      "bufferView": 0,
      "byteOffset": 17424,
      "componentType": 5125,
      "count": 4356,
      "type": "SCALAR"
    },
    {
      "bufferView": 2,
      "byteOffset": 139392,
      "componentType": 5126,
      "count": 2904,
      "max": [
        1.0,
        1.0,
        1.0
      ],
      "min": [
        -1.0,
        -1.0,
        -1.0
      ],
      "type": "VEC3"
    },
    {
      "bufferView": 2,
      "byteOffset": 174240,
      "componentType": 5126,
      "count": 2904,
      "max": [
        1.0,
        1.0,
        1.0
      ],
      "min": [
        -1.0,
        -1.0,
        -1.0
      ],
      "type": "VEC3"
    },
    {
      "bufferView": 1,
      "byteOffset": 46464,
      "componentType": 5126,
      "count": 2904,
      "max": [
        0.875,
        1.0
      ],
      "min": [
        0.125,
        0.0
      ],
      "type": "VEC2"
    },
    {
      "bufferView": 0,
      "byteOffset": 34848,
      "componentType": 5125,
      "count": 4356,
      "type": "SCALAR"
    },
    {
      "bufferView": 2,
      "byteOffset": 209088,
      "componentType": 5126,
      "count": 2904,
      "max": [
        1.0,
        1.0,
        1.0
      ],
      "min": [
        -1.0,
        -1.0,
        -1.0
      ],
      "type": "VEC3"
    },
    {
      "bufferView": 2,
      "byteOffset": 243936,
      "componentType": 5126,
      "count": 2904,
      "max": [
        1.0,
        1.0,
        1.0
      ],
      "min": [
        -1.0,
        -1.0,
        -1.0
      ],
      "type": "VEC3"
    },
    {
      "bufferView": 1,
      "byteOffset": 69696,
      "componentType": 5126,
      "count": 2904,
      "max": [
        0.875,
        1.0
      ],
      "min": [
        0.125,
        0.0
      ],
      "type": "VEC2"
    },
    {
      "bufferView": 0,
      "byteOffset": 52272,
      "componentType": 5125,
      "count": 4356,
      "type": "SCALAR"
    },
    {
      "bufferView": 2,
      "byteOffset": 278784,
      "componentType": 5126,
      "count": 2904,
      "max": [
        1.0,
        1.0,
        1.0
      ],
      "min": [
        -1.0,
        -1.0,
        -1.0
      ],
      "type": "VEC3"
    },
    {
      "bufferView": 2,
      "byteOffset": 313632,
      "componentType": 5126,
      "count": 2904,
      "max": [
        1.0,
        1.0,
        1.0
      ],
      "min": [
        -1.0,
        -1.0,
        -1.0
      ],
      "type": "VEC3"
    },
    {
      "bufferView": 1,
      "byteOffset": 92928,
      "componentType": 5126,
      "count": 2904,
      "max": [
        0.875,
        1.0
      ],
      "min": [
        0.125,
        0.0
      ],
      "type": "VEC2"
    },
    {
      "bufferView": 0,
      "byteOffset": 69696,
      "componentType": 5125,
      "count": 4356,
      "type": "SCALAR"
    },
    {
      "bufferView": 2,
      "byteOffset": 348480,
      "componentType": 5126,
      "count": 2904,
      "max": [
        1.0,
        1.0,
        1.0
      ],
      "min": [
        -1.0,
        -1.0,
        -1.0
      ],
      "type": "VEC3"
    },
    {
      "bufferView": 2,
      "byteOffset": 383328,
      "componentType": 5126,
      "count": 2904,
      "max": [
        1.0,
        1.0,
        1.0
      ],
      "min": [
        -1.0,
        -1.0,
        -1.0
      ],
      "type": "VEC3"
    },
    {
      "bufferView": 1,
      "byteOffset": 116160,
      "componentType": 5126,
      "count": 2904,
      "max": [
        0.875,
        1.0
      ],
      "min": [
        0.125,
        0.0
      ],
      "type": "VEC2"
    },
    {
      "bufferView": 0,
      "byteOffset": 87120,
      "componentType": 5125,
      "count": 4356,
      "type": "SCALAR"
    },
    {
      "bufferView": 2,
      "byteOffset": 418176,
      "componentType": 5126,
      "count": 2904,
      "max": [
        1.0,
        1.0,
        1.0
      ],
      "min": [
        -1.0,
        -1.0,
        -1.0
      ],
      "type": "VEC3"
    },
    {
      "bufferView": 2,
      "byteOffset": 453024,
      "componentType": 5126,
      "count": 2904,
      "max": [
        1.0,
        1.0,
        1.0
      ],
      "min": [
        -1.0,
        -1.0,
        -1.0
      ],
      "type": "VEC3"
    },
    {
      "bufferView": 1,
      "byteOffset": 139392,
      "componentType": 5126,
      "count": 2904,
      "max": [
        0.875,
        1.0
      ],
      "min": [
        0.125,
        0.0
      ],
      "type": "VEC2"
    },
    {
      "bufferView": 0,
      "byteOffset": 104544,
      "componentType": 5125,
      "count": 4356,
      "type": "SCALAR"
    },
    {
      "bufferView": 2,
      "byteOffset": 487872,
      "componentType": 5126,
      "count": 2904,
      "max": [
        1.0,
        1.0,
        1.0
      ],
      "min": [
        -1.0,
        -1.0,
        -1.0
      ],
      "type": "VEC3"
    },
    {
      "bufferView": 2,
      "byteOffset": 522720,
      "componentType": 5126,
      "count": 2904,
      "max": [
        1.0,
        1.0,
        1.0
      ],
      "min": [
        -1.0,
        -1.0,
        -1.0
      ],
      "type": "VEC3"
    },
    {
      "bufferView": 1,
      "byteOffset": 162624,
      "componentType": 5126,
      "count": 2904,
      "max": [
        0.875,
        1.0
      ],
      "min": [
        0.125,
        0.0
      ],
      "type": "VEC2"
    },
    {
      "bufferView": 0,
      "byteOffset": 121968,
      "componentType": 5125,
      "count": 4356,
      "type": "SCALAR"
    },
    {
      "bufferView": 2,
      "byteOffset": 557568,
      "componentType": 5126,
      "count": 2904,
      "max": [
        1.0,
        1.0,
        1.0
      ],
      "min": [
        -1.0,
        -1.0,
        -1.0
      ],
      "type": "VEC3"
    },
    {
      "bufferView": 2,
      "byteOffset": 592416,
      "componentType": 5126,
      "count": 2904,
      "max": [
        1.0,
        1.0,
        1.0
      ],
      "min": [
        -1.0,
        -1.0,
        -1.0
      ],
      "type": "VEC3"
    },
    {
      "bufferView": 1,
      "byteOffset": 185856,
      "componentType": 5126,
      "count": 2904,
      "max": [
        0.875,
        1.0
      ],
      "min": [
        0.125,
        0.0
      ],
      "type": "VEC2"
    },
    {
      "bufferView": 0,
      "byteOffset": 139392,
      "componentType": 5125,
      "count": 4356,
      "type": "SCALAR"
    },
    {
      "bufferView": 2,
      "byteOffset": 627264,
      "componentType": 5126,
      "count": 2904,
      "max": [
        1.0,
        1.0,
        1.0
      ],
      "min": [
        -1.0,
        -1.0,
        -1.0
      ],
      "type": "VEC3"
    },
    {
      "bufferView": 2,
      "byteOffset": 662112,
      "componentType": 5126,
      "count": 2904,
      "max": [
        1.0,
        1.0,
        1.0
      ],
      "min": [
        -1.0,
        -1.0,
        -1.0
      ],
      "type": "VEC3"
    },
    {
      "bufferView": 1,
      "byteOffset": 209088,
      "componentType": 5126,
      "count": 2904,
      "max": [
        0.875,
        1.0
      ],
      "min": [
        0.125,
        0.0
      ],
      "type": "VEC2"
    },
    {
      "bufferView": 0,
      "byteOffset": 156816,
      "componentType": 5125,
      "count": 4356,
      "type": "SCALAR"
    },
    {
      "bufferView": 2,
      "byteOffset": 696960,
      "componentType": 5126,
      "count": 2904,
      "max": [
        1.0,
        1.0,
        1.0
      ],
      "min": [
        -1.0,
        -1.0,
        -1.0
      ],
      "type": "VEC3"
    },
    {
      "bufferView": 2,
      "byteOffset": 731808,
      "componentType": 5126,
      "count": 2904,
      "max": [
        1.0,
        1.0,
        1.0
      ],
      "min": [
        -1.0,
        -1.0,
        -1.0
      ],
      "type": "VEC3"
    },
    {
      "bufferView": 1,
      "byteOffset": 232320,
      "componentType": 5126,
      "count": 2904,
      "max": [
        0.875,
        1.0
      ],
      "min": [
        0.125,
        0.0
      ],
      "type": "VEC2"
    },
    {
      "bufferView": 0,
      "byteOffset": 174240,
      "componentType": 5125,
      "count": 4356,
      "type": "SCALAR"
    },
    {
      "bufferView": 2,
      "byteOffset": 766656,
      "componentType": 5126,
      "count": 2904,
      "max": [
        1.0,
        1.0,
        1.0
      ],
      "min": [
        -1.0,
        -1.0,
        -1.0
      ],
      "type": "VEC3"
    },
    {
      "bufferView": 2,
      "byteOffset": 801504,
      "componentType": 5126,
      "count": 2904,
      "max": [
        1.0,
        1.0,
        1.0
      ],
      "min": [
        -1.0,
        -1.0,
        -1.0
      ],
      "type": "VEC3"
    },
    {
      "bufferView": 1,
      "byteOffset": 255552,
      "componentType": 5126,
      "count": 2904,
      "max": [
        0.875,
        1.0
      ],
      "min": [
        0.125,
        0.0
      ],
      "type": "VEC2"
    },
    {
      "bufferView": 0,
      "byteOffset": 191664,
      "componentType": 5125,
      "count": 4356,
      "type": "SCALAR"
    },
    {
      "bufferView": 2,
      "byteOffset": 836352,
      "componentType": 5126,
      "count": 2904,
      "max": [
        1.0,
        1.0,
        1.0
      ],
      "min": [
        -1.0,
        -1.0,
        -1.0
      ],
      "type": "VEC3"
    },
    {
      "bufferView": 2,
      "byteOffset": 871200,
      "componentType": 5126,
      "count": 2904,
      "max": [
        1.0,
        1.0,
        1.0
      ],
      "min": [
        -1.0,
        -1.0,
        -1.0
      ],
      "type": "VEC3"
    },
    {
      "bufferView": 1,
      "byteOffset": 278784,
      "componentType": 5126,
      "count": 2904,
      "max": [
        0.875,
        1.0
      ],
      "min": [
        0.125,
        0.0
      ],
      "type": "VEC2"
    },
    {
      "bufferView": 0,
      "byteOffset": 209088,
      "componentType": 5125,
      "count": 4356,
      "type": "SCALAR"
    },
    {
      "bufferView": 2,
      "byteOffset": 906048,
      "componentType": 5126,
      "count": 2904,
      "max": [
        1.0,
        1.0,
        1.0
      ],
      "min": [
        -1.0,
        -1.0,
        -1.0
      ],
      "type": "VEC3"
    },
    {
      "bufferView": 2,
      "byteOffset": 940896,
      "componentType": 5126,
      "count": 2904,
      "max": [
        1.0,
        1.0,
        1.0
      ],
      "min": [
        -1.0,
        -1.0,
        -1.0
      ],
      "type": "VEC3"
    },
    {
      "bufferView": 1,
      "byteOffset": 302016,
      "componentType": 5126,
      "count": 2904,
      "max": [
        0.875,
        1.0
      ],
      "min": [
        0.125,
        0.0
      ],
      "type": "VEC2"
    },
    {
      "bufferView": 0,
      "byteOffset": 226512,
      "componentType": 5125,
      "count": 4356,
      "type": "SCALAR"
    },
    {
      "bufferView": 2,
      "byteOffset": 975744,
      "componentType": 5126,
      "count": 2904,
      "max": [
        1.0,
        1.0,
        1.0
      ],
      "min": [
        -1.0,
        -1.0,
        -1.0
      ],
      "type": "VEC3"
    },
    {
      "bufferView": 2,
      "byteOffset": 1010592,
      "componentType": 5126,
      "count": 2904,
      "max": [
        1.0,
        1.0,
        1.0
      ],
      "min": [
        -1.0,
        -1.0,
        -1.0
      ],
      "type": "VEC3"
    },
    {
      "bufferView": 1,
      "byteOffset": 325248,
      "componentType": 5126,
      "count": 2904,
      "max": [
        0.875,
        1.0
      ],
      "min": [
        0.125,
        0.0
      ],
      "type": "VEC2"
    },
    {
      "bufferView": 0,
      "byteOffset": 243936,
      "componentType": 5125,
      "count": 4356,
      "type": "SCALAR"
    },
    {
      "bufferView": 2,
      "byteOffset": 1045440,
      "componentType": 5126,
      "count": 2904,
      "max": [
        1.0,
        1.0,
        1.0
      ],
      "min": [
        -1.0,
        -1.0,
        -1.0
      ],
      "type": "VEC3"
    },
    {
      "bufferView": 2,
      "byteOffset": 1080288,
      "componentType": 5126,
      "count": 2904,
      "max": [
        1.0,
        1.0,
        1.0
      ],
      "min": [
        -1.0,
        -1.0,
        -1.0
      ],
      "type": "VEC3"
    },
    {
      "bufferView": 1,
      "byteOffset": 348480,
      "componentType": 5126,
      "count": 2904,
      "max": [
        0.875,
        1.0
      ],
      "min": [
        0.125,
        0.0
      ],
      "type": "VEC2"
    },
    {
      "bufferView": 0,
      "byteOffset": 261360,
      "componentType": 5125,
      "count": 4356,
      "type": "SCALAR"
    },
    {
      "bufferView": 2,
      "byteOffset": 1115136,
      "componentType": 5126,
      "count": 2904,
      "max": [
        1.0,
        1.0,
        1.0
      ],
      "min": [
        -1.0,
        -1.0,
        -1.0
      ],
      "type": "VEC3"
    },
    {
      "bufferView": 2,
      "byteOffset": 1149984,
      "componentType": 5126,
      "count": 2904,
      "max": [
        1.0,
        1.0,
        1.0
      ],
      "min": [
        -1.0,
        -1.0,
        -1.0
      ],
      "type": "VEC3"
    },
    {
      "bufferView": 1,
      "byteOffset": 371712,
      "componentType": 5126,
      "count": 2904,
      "max": [
        0.875,
        1.0
      ],
      "min": [
        0.125,
        0.0
      ],
      "type": "VEC2"
    },
    {
      "bufferView": 0,
      "byteOffset": 278784,
      "componentType": 5125,
      "count": 4356,
      "type": "SCALAR"
    },
    {
      "bufferView": 2,
      "byteOffset": 1184832,
      "componentType": 5126,
      "count": 2904,
      "max": [
        1.0,
        1.0,
        1.0
      ],
      "min": [
        -1.0,
        -1.0,
        -1.0
      ],
      "type": "VEC3"
    },
    {
      "bufferView": 2,
      "byteOffset": 1219680,
      "componentType": 5126,
      "count": 2904,
      "max": [
        1.0,
        1.0,
        1.0
      ],
      "min": [
        -1.0,
        -1.0,
        -1.0
      ],
      "type": "VEC3"
    },
    {
      "bufferView": 1,
      "byteOffset": 394944,
      "componentType": 5126,
      "count": 2904,
      "max": [
        0.875,
        1.0
      ],
      "min": [
        0.125,
        0.0
      ],
      "type": "VEC2"
    },
    {
      "bufferView": 0,
      "byteOffset": 296208,
      "componentType": 5125,
      "count": 4356,
      "type": "SCALAR"
    },
    {
      "bufferView": 2,
      "byteOffset": 1254528,
      "componentType": 5126,
      "count": 2904,
      "max": [
        1.0,
        1.0,
        1.0
      ],
      "min": [
        -1.0,
        -1.0,
        -1.0
      ],
      "type": "VEC3"
    },
    {
      "bufferView": 2,
      "byteOffset": 1289376,
      "componentType": 5126,
      "count": 2904,
      "max": [
        1.0,
        1.0,
        1.0
      ],
      "min": [
        -1.0,
        -1.0,
        -1.0
      ],
      "type": "VEC3"
    },
    {
      "bufferView": 1,
      "byteOffset": 418176,
      "componentType": 5126,
      "count": 2904,
      "max": [
        0.875,
        1.0
      ],
      "min": [
        0.125,
        0.0
      ],
      "type": "VEC2"
    },
    {
      "bufferView": 0,
      "byteOffset": 313632,
      "componentType": 5125,
      "count": 4356,
      "type": "SCALAR"
    },
    {
      "bufferView": 2,
      "byteOffset": 1324224,
      "componentType": 5126,
      "count": 2904,
      "max": [
        1.0,
        1.0,
        1.0
      ],
      "min": [
        -1.0,
        -1.0,
        -1.0
      ],
      "type": "VEC3"
    },
    {
      "bufferView": 2,
      "byteOffset": 1359072,
      "componentType": 5126,
      "count": 2904,
      "max": [
        1.0,
        1.0,
        1.0
      ],
      "min": [
        -1.0,
        -1.0,
        -1.0
      ],
      "type": "VEC3"
    },
    {
      "bufferView": 1,
      "byteOffset": 441408,
      "componentType": 5126,
      "count": 2904,
      "max": [
        0.875,
        1.0
      ],
      "min": [
        0.125,
        0.0
      ],
      "type": "VEC2"
    },
    {
      "bufferView": 0,
      "byteOffset": 331056,
      "componentType": 5125,
      "count": 4356,
      "type": "SCALAR"
    },
    {
      "bufferView": 2,
      "byteOffset": 1393920,
      "componentType": 5126,
      "count": 2904,
      "max": [
        1.0,
        1.0,
        1.0
      ],
      "min": [
        -1.0,
        -1.0,
        -1.0
      ],
      "type": "VEC3"
    },
    {
      "bufferView": 2,
      "byteOffset": 1428768,
      "componentType": 5126,
      "count": 2904,
      "max": [
        1.0,
        1.0,
        1.0
      ],
      "min": [
        -1.0,
        -1.0,
        -1.0
      ],
      "type": "VEC3"
    },
    {
      "bufferView": 1,
      "byteOffset": 464640,
      "componentType": 5126,
      "count": 2904,
      "max": [
        0.875,
        1.0
      ],
      "min": [
        0.125,
        0.0
      ],
      "type": "VEC2"
    },
    {
      "bufferView": 0,
      "byteOffset": 348480,
      "componentType": 5125,
      "count": 4356,
      "type": "SCALAR"
    },
    {
      "bufferView": 2,
      "byteOffset": 1463616,
      "componentType": 5126,
      "count": 2904,
      "max": [
        1.0,
        1.0,
        1.0
      ],
      "min": [
        -1.0,
        -1.0,
        -1.0
      ],
      "type": "VEC3"
    },
    {
      "bufferView": 2,
      "byteOffset": 1498464,
      "componentType": 5126,
      "count": 2904,
      "max": [
        1.0,
        1.0,
        1.0
      ],
      "min": [
        -1.0,
        -1.0,
        -1.0
      ],
      "type": "VEC3"
    },
    {
      "bufferView": 1,
      "byteOffset": 487872,
      "componentType": 5126,
      "count": 2904,
      "max": [
        0.875,
        1.0
      ],
      "min": [
        0.125,
        0.0
      ],
      "type": "VEC2"
    },
    {
      "bufferView": 0,
      "byteOffset": 365904,
      "componentType": 5125,
      "count": 4356,
      "type": "SCALAR"
    },
    {
      "bufferView": 2,
      "byteOffset": 1533312,
      "componentType": 5126,
      "count": 2904,
      "max": [
        1.0,
        1.0,
        1.0
      ],
      "min": [
        -1.0,
        -1.0,
        -1.0
      ],
      "type": "VEC3"
    },
    {
      "bufferView": 2,
      "byteOffset": 1568160,
      "componentType": 5126,
      "count": 2904,
      "max": [
        1.0,
        1.0,
        1.0
      ],
      "min": [
        -1.0,
        -1.0,
        -1.0
      ],
      "type": "VEC3"
    },
    {
      "bufferView": 1,
      "byteOffset": 511104,
      "componentType": 5126,
      "count": 2904,
      "max": [
        0.875,
        1.0
      ],
      "min": [
        0.125,
        0.0
      ],
      "type": "VEC2"
    },
    {
      "bufferView": 0,
      "byteOffset": 383328,
      "componentType": 5125,
      "count": 4356,
      "type": "SCALAR"
    },
    {
      "bufferView": 2,
      "byteOffset": 1603008,
      "componentType": 5126,
      "count": 2904,
      "max": [
        1.0,
        1.0,
        1.0
      ],
      "min": [
        -1.0,
        -1.0,
        -1.0
      ],
      "type": "VEC3"
    },
    {
      "bufferView": 2,
      "byteOffset": 1637856,
      "componentType": 5126,
      "count": 2904,
      "max": [
        1.0,
        1.0,
        1.0
      ],
      "min": [
        -1.0,
        -1.0,
        -1.0
      ],
      "type": "VEC3"
    },
    {
      "bufferView": 1,
      "byteOffset": 534336,
      "componentType": 5126,
      "count": 2904,
      "max": [
        0.875,
        1.0
      ],
      "min": [
        0.125,
        0.0
      ],
      "type": "VEC2"
    },
    {
      "bufferView": 0,
      "byteOffset": 400752,
      "componentType": 5125,
      "count": 4356,
      "type": "SCALAR"
    },
    {
      "bufferView": 2,
      "byteOffset": 1672704,
      "componentType": 5126,
      "count": 2904,
      "max": [
        1.0,
        1.0,
        1.0
      ],
      "min": [
        -1.0,
        -1.0,
        -1.0
      ],
      "type": "VEC3"
    },
    {
      "bufferView": 2,
      "byteOffset": 1707552,
      "componentType": 5126,
      "count": 2904,
      "max": [
        1.0,
        1.0,
        1.0
      ],
      "min": [
        -1.0,
        -1.0,
        -1.0
      ],
      "type": "VEC3"
    },
    {
      "bufferView": 1,
      "byteOffset": 557568,
      "componentType": 5126,
      "count": 2904,
      "max": [
        0.875,
        1.0
      ],
      "min": [
        0.125,
        0.0
      ],
      "type": "VEC2"
    },
    {
      "bufferView": 0,
      "byteOffset": 418176,
      "componentType": 5125,
      "count": 4356,
      "type": "SCALAR"
    },
    {
      "bufferView": 2,
      "byteOffset": 1742400,
      "componentType": 5126,
      "count": 2904,
      "max": [
        1.0,
        1.0,
        1.0
      ],
      "min": [
        -1.0,
        -1.0,
        -1.0
      ],
      "type": "VEC3"
    },
    {
      "bufferView": 2,
      "byteOffset": 1777248,
      "componentType": 5126,
      "count": 2904,
      "max": [
        1.0,
        1.0,
        1.0
      ],
      "min": [
        -1.0,
        -1.0,
        -1.0
      ],
      "type": "VEC3"
    },
    {
      "bufferView": 1,
      "byteOffset": 580800,
      "componentType": 5126,
      "count": 2904,
      "max": [
        0.875,
        1.0
      ],
      "min": [
        0.125,
        0.0
      ],
      "type": "VEC2"
    },
    {
      "bufferView": 0,
      "byteOffset": 435600,
      "componentType": 5125,
      "count": 4356,
      "type": "SCALAR"
    },
    {
      "bufferView": 2,
      "byteOffset": 1812096,
      "componentType": 5126,
      "count": 2904,
      "max": [
        1.0,
        1.0,
        1.0
      ],
      "min": [
        -1.0,
        -1.0,
        -1.0
      ],
      "type": "VEC3"
    },
    {
      "bufferView": 2,
      "byteOffset": 1846944,
      "componentType": 5126,
      "count": 2904,
      "max": [
        1.0,
        1.0,
        1.0
      ],
      "min": [
        -1.0,
        -1.0,
        -1.0
      ],
      "type": "VEC3"
    },
    {
      "bufferView": 1,
      "byteOffset": 604032,
      "componentType": 5126,
      "count": 2904,
      "max": [
        0.875,
        1.0
      ],
      "min": [
        0.125,
        0.0
      ],
      "type": "VEC2"
    },
    {
      "bufferView": 0,
      "byteOffset": 453024,
      "componentType": 5125,
      "count": 4356,
      "type": "SCALAR"
    },
    {
      "bufferView": 2,
      "byteOffset": 1881792,
      "componentType": 5126,
      "count": 24,
      "max": [
        1.0,
        1.0,
        1.0
      ],
      "min": [
        -1.0,
        -1.0,
        -1.0
      ],
      "type": "VEC3"
    },
    {
      "bufferView": 2,
      "byteOffset": 1882080,
      "componentType": 5126,
      "count": 24,
      "max": [
        1.0,
        1.0,
        1.0
      ],
      "min": [
        -1.0,
        -1.0,
        -1.0
      ],
      "type": "VEC3"
    },
    {
      "bufferView": 1,
      "byteOffset": 627264,
      "componentType": 5126,
      "count": 24,
      "max": [
        0.875,
        1.0
      ],
      "min": [
        0.125,
        0.0
      ],
      "type": "VEC2"
    },
    {
      "bufferView": 0,
      "byteOffset": 470448,
      "componentType": 5125,
      "count": 36,
      "type": "SCALAR"
    }
  ],
  "asset": {
    "extras": {
      "author": "Ha4ris_Dev (https://sketchfab.com/Ha4ris_Dev)",
      "license": "CC-BY-4.0 (http://creativecommons.org/licenses/by/4.0/)",
      "source": "https://sketchfab.com/3d-models/brick-wall-122b8b58ff544b018629a178b5880553",
      "title": "Brick Wall"
    },
    "generator": "Sketchfab-16.8.0",
    "version": "2.0"
  },
  "bufferViews": [
    {
      "buffer": 0,
      "byteLength": 470592,
      "name": "floatBufferViews",
      "target": 34963
    },
    {
      "buffer": 0,
      "byteLength": 627456,
      "byteOffset": 470592,
      "byteStride": 8,
      "name": "floatBufferViews",
      "target": 34962
    },
    {
      "buffer": 0,
      "byteLength": 1882368,
      "byteOffset": 1098048,
      "byteStride": 12,
      "name": "floatBufferViews",
      "target": 34962
    }
  ],
  "buffers": [
    {
      "byteLength": 2980416,
      "uri": "scene.bin"
    }
  ],
  "materials": [
    {
      "doubleSided": true,
      "name": "s__0",
      "pbrMetallicRoughness": {
        "baseColorFactor": [
          0.7409556523337896,
          0.7262343385761705,
          0.7262343385761705,
          1.0
        ],
        "metallicFactor": 0.0,
        "roughnessFactor": 0.6
      }
    },
    {
      "doubleSided": true,
      "name": "Material",
      "pbrMetallicRoughness": {
        "baseColorFactor": [
          1.0,
          0.14412847085805777,
          0.14412847085805777,
          1.0
        ],
        "metallicFactor": 0.0,
        "roughnessFactor": 0.8211145618000169
      }
    },
    {
      "doubleSided": true,
      "name": "Material.001",
      "pbrMetallicRoughness": {
        "baseColorFactor": [
          1.0,
          0.14412847085805777,
          0.14412847085805777,
          1.0
        ],
        "metallicFactor": 0.0,
        "roughnessFactor": 0.8211145618000169
      }
    },
    {
      "doubleSided": true,
      "name": "Material.008",
      "pbrMetallicRoughness": {
        "baseColorFactor": [
          1.0,
          0.14412847085805777,
          0.14412847085805777,
          1.0
        ],
        "metallicFactor": 0.0,
        "roughnessFactor": 0.8211145618000169
      }
    },
    {
      "doubleSided": true,
      "name": "Material.002",
      "pbrMetallicRoughness": {
        "baseColorFactor": [
          1.0,
          0.14412847085805777,
          0.14412847085805777,
          1.0
        ],
        "metallicFactor": 0.0,
        "roughnessFactor": 0.8211145618000169
      }
    },
    {
      "doubleSided": true,
      "name": "Material.003",
      "pbrMetallicRoughness": {
        "baseColorFactor": [
          1.0,
          0.14412847085805777,
          0.14412847085805777,
          1.0
        ],
        "metallicFactor": 0.0,
        "roughnessFactor": 0.8211145618000169
      }
    },
    {
      "doubleSided": true,
      "name": "material_0",
      "pbrMetallicRoughness": {
        "baseColorFactor": [
          1.0,
          0.14412847085805777,
          0.14412847085805777,
          1.0
        ],
        "metallicFactor": 0.0,
        "roughnessFactor": 0.8211145618000169
      }
    },
    {
      "doubleSided": true,
      "name": "Material.006",
      "pbrMetallicRoughness": {
        "baseColorFactor": [
          1.0,
          0.14412847085805777,
          0.14412847085805777,
          1.0
        ],
        "metallicFactor": 0.0,
        "roughnessFactor": 0.8211145618000169
      }
    },
    {
      "doubleSided": true,
      "name": "Material.007",
      "pbrMetallicRoughness": {
        "baseColorFactor": [
          1.0,
          0.14412847085805777,
          0.14412847085805777,
          1.0
        ],
        "metallicFactor": 0.0,
        "roughnessFactor": 0.8211145618000169
      }
    },
    {
      "doubleSided": true,
      "name": "Material.009",
      "pbrMetallicRoughness": {
        "baseColorFactor": [
          1.0,
          0.14412847085805777,
          0.14412847085805777,
          1.0
        ],
        "metallicFactor": 0.0,
        "roughnessFactor": 0.8211145618000169
      }
    },
    {
      "doubleSided": true,
      "name": "Material.010",
      "pbrMetallicRoughness": {
        "baseColorFactor": [
          1.0,
          0.14412847085805777,
          0.14412847085805777,
          1.0
        ],
        "metallicFactor": 0.0,
        "roughnessFactor": 0.8211145618000169
      }
    },
    {
      "doubleSided": true,
      "name": "Material.011",
      "pbrMetallicRoughness": {
        "baseColorFactor": [
          1.0,
          0.14412847085805777,
          0.14412847085805777,
          1.0
        ],
        "metallicFactor": 0.0,
        "roughnessFactor": 0.8211145618000169
      }
    },
    {
      "doubleSided": true,
      "name": "Material.012",
      "pbrMetallicRoughness": {
        "baseColorFactor": [
          1.0,
          0.14412847085805777,
          0.14412847085805777,
          1.0
        ],
        "metallicFactor": 0.0,
        "roughnessFactor": 0.8211145618000169
      }
    },
    {
      "doubleSided": true,
      "name": "Material.013",
      "pbrMetallicRoughness": {
        "baseColorFactor": [
          1.0,
          0.14412847085805777,
          0.14412847085805777,
          1.0
        ],
        "metallicFactor": 0.0,
        "roughnessFactor": 0.8211145618000169
      }
    },
    {
      "doubleSided": true,
      "name": "material_1",
      "pbrMetallicRoughness": {
        "baseColorFactor": [
          1.0,
          0.14412847085805777,
          0.14412847085805777,
          1.0
        ],
        "metallicFactor": 0.0,
        "roughnessFactor": 0.8211145618000169
      }
    },
    {
      "doubleSided": true,
      "name": "Material.016",
      "pbrMetallicRoughness": {
        "baseColorFactor": [
          1.0,
          0.14412847085805777,
          0.14412847085805777,
          1.0
        ],
        "metallicFactor": 0.0,
        "roughnessFactor": 0.8211145618000169
      }
    },
    {
      "doubleSided": true,
      "name": "Material.017",
      "pbrMetallicRoughness": {
        "baseColorFactor": [
          1.0,
          0.14412847085805777,
          0.14412847085805777,
          1.0
        ],
        "metallicFactor": 0.0,
        "roughnessFactor": 0.8211145618000169
      }
    },
    {
      "doubleSided": true,
      "name": "Material.018",
      "pbrMetallicRoughness": {
        "baseColorFactor": [
          1.0,
          0.14412847085805777,
          0.14412847085805777,
          1.0
        ],
        "metallicFactor": 0.0,
        "roughnessFactor": 0.8211145618000169
      }
    },
    {
      "doubleSided": true,
      "name": "Material.015",
      "pbrMetallicRoughness": {
        "baseColorFactor": [
          1.0,
          0.14412847085805777,
          0.14412847085805777,
          1.0
        ],
        "metallicFactor": 0.0,
        "roughnessFactor": 0.8211145618000169
      }
    },
    {
      "doubleSided": true,
      "name": "Material.019",
      "pbrMetallicRoughness": {
        "baseColorFactor": [
          1.0,
          0.14412847085805777,
          0.14412847085805777,
          1.0
        ],
        "metallicFactor": 0.0,
        "roughnessFactor": 0.8211145618000169
      }
    },
    {
      "doubleSided": true,
      "name": "Material.020",
      "pbrMetallicRoughness": {
        "baseColorFactor": [
          1.0,
          0.14430706441529748,
          0.14430706441529748,
          1.0
        ],
        "metallicFactor": 0.0,
        "roughnessFactor": 0.8211145618000169
      }
    },
    {
      "doubleSided": true,
      "name": "Material.021",
      "pbrMetallicRoughness": {
        "baseColorFactor": [
          1.0,
          0.14412847085805777,
          0.14412847085805777,
          1.0
        ],
        "metallicFactor": 0.0,
        "roughnessFactor": 0.8211145618000169
      }
    },
    {
      "doubleSided": true,
      "name": "Material.022",
      "pbrMetallicRoughness": {
        "baseColorFactor": [
          1.0,
          0.14412847085805777,
          0.14412847085805777,
          1.0
        ],
        "metallicFactor": 0.0,
        "roughnessFactor": 0.8211145618000169
      }
    },
    {
      "doubleSided": true,
      "name": "Material.026",
      "pbrMetallicRoughness": {
        "baseColorFactor": [
          1.0,
          0.14412847085805777,
          0.14412847085805777,
          1.0
        ],
        "metallicFactor": 0.0,
        "roughnessFactor": 0.8211145618000169
      }
    },
    {
      "doubleSided": true,
      "name": "Material.023",
      "pbrMetallicRoughness": {
        "baseColorFactor": [
          1.0,
          0.14412847085805777,
          0.14412847085805777,
          1.0
        ],
        "metallicFactor": 0.0,
        "roughnessFactor": 0.8211145618000169
      }
    },
    {
      "doubleSided": true,
      "name": "Material.024",
      "pbrMetallicRoughness": {
        "baseColorFactor": [
          1.0,
          0.14412847085805777,
          0.14412847085805777,
          1.0
        ],
        "metallicFactor": 0.0,
        "roughnessFactor": 0.8211145618000169
      }
    },
    {
      "doubleSided": true,
      "name": "Material.025",
      "pbrMetallicRoughness": {
        "baseColorFactor": [
          1.0,
          0.14412847085805777,
          0.14412847085805777,
          1.0
        ],
        "metallicFactor": 0.0,
        "roughnessFactor": 0.8211145618000169
      }
    },
    {
      "doubleSided": true,
      "name": "Material.027",
      "pbrMetallicRoughness": {
        "baseColorFactor": [
          1.0,
          0.14412847085805777,
          0.14412847085805777,
          1.0
        ],
        "metallicFactor": 0.0,
        "roughnessFactor": 0.8211145618000169
      }
    }
  ],
  "meshes": [
    {
      "name": "Cube_Material_0",
      "primitives": [
        {
          "attributes": {
            "NORMAL": 1,
            "POSITION": 0,
            "TEXCOORD_0": 2
          },
          "indices": 3,
          "material": 1,
          "mode": 4
        }
      ]
    },
    {
      "name": "Cube.001_Material.001_0",
      "primitives": [
        {
          "attributes": {
            "NORMAL": 5,
            "POSITION": 4,
            "TEXCOORD_0": 6
          },
          "indices": 7,
          "material": 2,
          "mode": 4
        }
      ]
    },
    {
      "name": "Cube.002_Material.008_0",
      "primitives": [
        {
          "attributes": {
            "NORMAL": 9,
            "POSITION": 8,
            "TEXCOORD_0": 10
          },
          "indices": 11,
          "material": 3,
          "mode": 4
        }
      ]
    },
    {
      "name": "Cube.003_Material.002_0",
      "primitives": [
        {
          "attributes": {
            "NORMAL": 13,
            "POSITION": 12,
            "TEXCOORD_0": 14
          },
          "indices": 15,
          "material": 4,
          "mode": 4
        }
      ]
    },
    {
      "name": "Cube.004_Material.003_0",
      "primitives": [
        {
          "attributes": {
            "NORMAL": 17,
            "POSITION": 16,
            "TEXCOORD_0": 18
          },
          "indices": 19,
          "material": 5,
          "mode": 4
        }
      ]
    },
    {
      "name": "Cube.005_Material.005_0",
      "primitives": [
        {
          "attributes": {
            "NORMAL": 21,
            "POSITION": 20,
            "TEXCOORD_0": 22
          },
          "indices": 23,
          "material": 6,
          "mode": 4
        }
      ]
    },
    {
      "name": "Cube.006_Material.006_0",
      "primitives": [
        {
          "attributes": {
            "NORMAL": 25,
            "POSITION": 24,
            "TEXCOORD_0": 26
          },
          "indices": 27,
          "material": 7,
          "mode": 4
        }
      ]
    },
    {
      "name": "Cube.007_Material.007_0",
      "primitives": [
        {
          "attributes": {
            "NORMAL": 29,
            "POSITION": 28,
            "TEXCOORD_0": 30
          },
          "indices": 31,
          "material": 8,
          "mode": 4
        }
      ]
    },
    {
      "name": "Cube.008_Material.009_0",
      "primitives": [
        {
          "attributes": {
            "NORMAL": 33,
            "POSITION": 32,
            "TEXCOORD_0": 34
          },
          "indices": 35,
          "material": 9,
          "mode": 4
        }
      ]
    },
    {
      "name": "Cube.009_Material.010_0",
      "primitives": [
        {
          "attributes": {
            "NORMAL": 37,
            "POSITION": 36,
            "TEXCOORD_0": 38
          },
          "indices": 39,
          "material": 10,
          "mode": 4
        }
      ]
    },
    {
      "name": "Cube.010_Material.011_0",
      "primitives": [
        {
          "attributes": {
            "NORMAL": 41,
            "POSITION": 40,
            "TEXCOORD_0": 42
          },
          "indices": 43,
          "material": 11,
          "mode": 4
        }
      ]
    },
    {
      "name": "Cube.011_Material.012_0",
      "primitives": [
        {
          "attributes": {
            "NORMAL": 45,
            "POSITION": 44,
            "TEXCOORD_0": 46
          },
          "indices": 47,
          "material": 12,
          "mode": 4
        }
      ]
    },
    {
      "name": "Cube.012_Material.013_0",
      "primitives": [
        {
          "attributes": {
            "NORMAL": 49,
            "POSITION": 48,
            "TEXCOORD_0": 50
          },
          "indices": 51,
          "material": 13,
          "mode": 4
        }
      ]
    },
    {
      "name": "Cube.013_Material.014_0",
      "primitives": [
        {
          "attributes": {
            "NORMAL": 53,
            "POSITION": 52,
            "TEXCOORD_0": 54
          },
          "indices": 55,
          "material": 14,
          "mode": 4
        }
      ]
    },
    {
      "name": "Cube.014_Material.016_0",
      "primitives": [
        {
          "attributes": {
            "NORMAL": 57,
            "POSITION": 56,
            "TEXCOORD_0": 58
          },
          "indices": 59,
          "material": 15,
          "mode": 4
        }
      ]
    },
    {
      "name": "Cube.015_Material.017_0",
      "primitives": [
        {
          "attributes": {
            "NORMAL": 61,
            "POSITION": 60,
            "TEXCOORD_0": 62
          },
          "indices": 63,
          "material": 16,
          "mode": 4
        }
      ]
    },
    {
      "name": "Cube.016_Material.018_0",
      "primitives": [
        {
          "attributes": {
            "NORMAL": 65,
            "POSITION": 64,
            "TEXCOORD_0": 66
          },
          "indices": 67,
          "material": 17,
          "mode": 4
        }
      ]
    },
    {
      "name": "Cube.017_Material.015_0",
      "primitives": [
        {
          "attributes": {
            "NORMAL": 69,
            "POSITION": 68,
            "TEXCOORD_0": 70
          },
          "indices": 71,
          "material": 18,
          "mode": 4
        }
      ]
    },
    {
      "name": "Cube.018_Material.019_0",
      "primitives": [
        {
          "attributes": {
            "NORMAL": 73,
            "POSITION": 72,
            "TEXCOORD_0": 74
          },
          "indices": 75,
          "material": 19,
          "mode": 4
        }
      ]
    },
    {
      "name": "Cube.019_Material.020_0",
      "primitives": [
        {
          "attributes": {
            "NORMAL": 77,
            "POSITION": 76,
            "TEXCOORD_0": 78
          },
          "indices": 79,
          "material": 20,
          "mode": 4
        }
      ]
    },
    {
      "name": "Cube.020_Material.021_0",
      "primitives": [
        {
          "attributes": {
            "NORMAL": 81,
            "POSITION": 80,
            "TEXCOORD_0": 82
          },
          "indices": 83,
          "material": 21,
          "mode": 4
        }
      ]
    },
    {
      "name": "Cube.021_Material.022_0",
      "primitives": [
        {
          "attributes": {
            "NORMAL": 85,
            "POSITION": 84,
            "TEXCOORD_0": 86
          },
          "indices": 87,
          "material": 22,
          "mode": 4
        }
      ]
    },
    {
      "name": "Cube.022_Material.026_0",
      "primitives": [
        {
          "attributes": {
            "NORMAL": 89,
            "POSITION": 88,
            "TEXCOORD_0": 90
          },
          "indices": 91,
          "material": 23,
          "mode": 4
        }
      ]
    },
    {
      "name": "Cube.023_Material.023_0",
      "primitives": [
        {
          "attributes": {
            "NORMAL": 93,
            "POSITION": 92,
            "TEXCOORD_0": 94
          },
          "indices": 95,
          "material": 24,
          "mode": 4
        }
      ]
    },
    {
      "name": "Cube.024_Material.024_0",
      "primitives": [
        {
          "attributes": {
            "NORMAL": 97,
            "POSITION": 96,
            "TEXCOORD_0": 98
          },
          "indices": 99,
          "material": 25,
          "mode": 4
        }
      ]
    },
    {
      "name": "Cube.025_Material.025_0",
      "primitives": [
        {
          "attributes": {
            "NORMAL": 101,
            "POSITION": 100,
            "TEXCOORD_0": 102
          },
          "indices": 103,
          "material": 26,
          "mode": 4
        }
      ]
    },
    {
      "name": "Cube.026_Material.027_0",
      "primitives": [
        {
          "attributes": {
            "NORMAL": 105,
            "POSITION": 104,
            "TEXCOORD_0": 106
          },
          "indices": 107,
          "material": 27,
          "mode": 4
        }
      ]
    },
    {
      "name": "s__0",
      "primitives": [
        {
          "attributes": {
            "NORMAL": 109,
            "POSITION": 108,
            "TEXCOORD_0": 110
          },
          "indices": 111,
          "material": 0,
          "mode": 4
        }
      ]
    }
  ],
  "nodes": [
    {
      "children": [
        1
      ],
      "matrix": [
        1.0,
        0.0,
        0.0,
        0.0,
        0.0,
        2.220446049250313e-16,
        -1.0,
        0.0,
        0.0,
        1.0,
        2.220446049250313e-16,
        0.0,
        0.0,
        0.0,
        0.0,
        1.0
      ],
      "name": "Sketchfab_model"
    },
    {
      "children": [
        2
      ],
      "matrix": [
        0.009999999776482582,
        0.0,
        0.0,
        0.0,
        0.0,
        0.0,
        0.009999999776482582,
        0.0,
        0.0,
        -0.009999999776482582,
        0.0,
        0.0,
        0.0,
        0.0,
        0.0,
        1.0
      ],
      "name": "84aa1b462eb54061a36a5b50fe4efb62.fbx"
    },
    {
      "children": [
        3,
        6,
        8,
        11,
        13,
        15,
        17,
        19,
        21,
        23,
        25,
        27,
        29,
        31,
        33,
        35,
        37,
        39,
        41,
        43,
        45,
        47,
        49,
        51,
        53,
        55,
        57,
        59,
        61,
        63,
        65
      ],
      "name": "RootNode"
    },
    {
      "children": [
        4
      ],
      "matrix": [
        -29.086477364379697,
        -5.518905590722295,
        -95.51711910171437,
        0.0,
        56.63932069164076,
        79.46722539115298,
        -21.839126361216156,
        0.0,
        77.11007920637729,
        -60.452475336912016,
        -19.988344364310564,
        0.0,
        407.6245422363281,
        590.38623046875,
        -100.54539489746094,
        1.0
      ],
      "name": "Light"
    },
    {
      "children": [
        5
      ],
      "matrix": [
        1.0,
        0.0,
        0.0,
        0.0,
        0.0,
        2.220446049250313e-16,
        1.0,
        0.0,
        0.0,
        -1.0,
        2.220446049250313e-16,
        0.0,
        0.0,
        0.0,
        0.0,
        1.0
      ],
      "name": "Object_4"
    },
    {
      "name": "Object_5"
    },
    {
      "children": [
        7
      ],
      "matrix": [
        -65.1558127516791,
        -44.52713915455176,
        -61.417049289096546,
        0.0,
        -32.401349332924404,
        89.53957282709818,
        -30.5420854760369,
        0.0,
        68.59207001076241,
        8.666908837178815e-06,
        -72.76761921184274,
        0.0,
        735.88916015625,
        495.8309326171875,
        692.5791015625,
        1.0
      ],
      "name": "Camera"
    },
    {
      "name": "Object_7"
    },
    {
      "children": [
        9
      ],
      "matrix": [
        -29.0864728449705,
        5.489350382096122,
        95.5188235674013,
        0.0,
        56.63939746083002,
        -79.47392913881428,
        21.81455404980386,
        0.0,
        77.11003357924233,
        60.44636585850529,
        20.007026310444324,
        0.0,
        -514.1924438476563,
        -242.83340454101563,
        93.48778533935547,
        1.0
      ],
      "name": "Light.001"
    },
    {
      "children": [
        10
      ],
      "matrix": [
        1.0,
        0.0,
        0.0,
        0.0,
        0.0,
        2.220446049250313e-16,
        1.0,
        0.0,
        0.0,
        -1.0,
        2.220446049250313e-16,
        0.0,
        0.0,
        0.0,
        0.0,
        1.0
      ],
      "name": "Object_9"
    },
    {
      "name": "Object_10"
    },
    {
      "children": [
        12
      ],
      "matrix": [
        100.0,
        0.0,
        0.0,
        0.0,
        0.0,
        -9.185560059103902e-06,
        -56.3805656433098,
        0.0,
        0.0,
        33.221370697021044,
        -5.41244828428662e-06,
        0.0,
        100.01451873779297,
        0.0,
        0.0,
        1.0
      ],
      "name": "Cube"
    },
    {
      "mesh": 0,
      "name": "Cube_Material_0"
    },
    {
      "children": [
        14
      ],
      "matrix": [
        100.0,
        0.0,
        0.0,
        0.0,
        -0.0,
        -9.185560059103902e-06,
        -56.3805656433098,
        0.0,
        0.0,
        33.221370697021044,
        -5.41244828428662e-06,
        0.0,
        -104.15458679199219,
        0.0,
        0.0,
        1.0
      ],
      "name": "Cube.001"
    },
    {
      "mesh": 1,
      "name": "Cube.001_Material.001_0"
    },
    {
      "children": [
        16
      ],
      "matrix": [
        100.0,
        0.0,
        0.0,
        0.0,
        0.0,
        -9.185560059103902e-06,
        -56.3805656433098,
        0.0,
        0.0,
        33.221370697021044,
        -5.41244828428662e-06,
        0.0,
        409.13604736328125,
        69.44982147216797,
        0.0,
        1.0
      ],
      "name": "Cube.002"
    },
    {
      "mesh": 2,
      "name": "Cube.002_Material.008_0"
    },
    {
      "children": [
        18
      ],
      "matrix": [
        100.0,
        0.0,
        0.0,
        0.0,
        0.0,
        -9.185560059103902e-06,
        -56.3805656433098,
        0.0,
        0.0,
        33.221370697021044,
        -5.41244828428662e-06,
        0.0,
        305.178466796875,
        0.0,
        0.0,
        1.0
      ],
      "name": "Cube.003"
    },
    {
      "mesh": 3,
      "name": "Cube.003_Material.002_0"
    },
    {
      "children": [
        20
      ],
      "matrix": [
        100.0,
        0.0,
        0.0,
        0.0,
        -0.0,
        -9.185560059103902e-06,
        -56.3805656433098,
        0.0,
        0.0,
        33.221370697021044,
        -5.41244828428662e-06,
        0.0,
        -308.6912536621094,
        0.0,
        0.0,
        1.0
      ],
      "name": "Cube.004"
    },
    {
      "mesh": 4,
      "name": "Cube.004_Material.003_0"
    },
    {
      "children": [
        22
      ],
      "matrix": [
        100.0,
        0.0,
        0.0,
        0.0,
        0.0,
        -9.185560059103902e-06,
        -56.3805656433098,
        0.0,
        0.0,
        33.221370697021044,
        -5.41244828428662e-06,
        0.0,
        203.58352661132813,
        69.44982147216797,
        0.0,
        1.0
      ],
      "name": "Cube.005"
    },
    {
      "mesh": 5,
      "name": "Cube.005_Material.005_0"
    },
    {
      "children": [
        24
      ],
      "matrix": [
        100.0,
        0.0,
        0.0,
        0.0,
        -0.0,
        -9.185560059103902e-06,
        -56.3805656433098,
        0.0,
        0.0,
        33.221370697021044,
        -5.41244828428662e-06,
        0.0,
        -205.56103515625,
        69.44982147216797,
        0.0,
        1.0
      ],
      "name": "Cube.006"
    },
    {
      "mesh": 6,
      "name": "Cube.006_Material.006_0"
    },
    {
      "children": [
        26
      ],
      "matrix": [
        100.0,
        0.0,
        0.0,
        0.0,
        -0.0,
        -9.185560059103902e-06,
        -56.3805656433098,
        0.0,
        0.0,
        33.221370697021044,
        -5.41244828428662e-06,
        0.0,
        -1.4816707372665405,
        69.44982147216797,
        0.0,
        1.0
      ],
      "name": "Cube.007"
    },
    {
      "mesh": 7,
      "name": "Cube.007_Material.007_0"
    },
    {
      "children": [
        28
      ],
      "matrix": [
        100.0,
        0.0,
        0.0,
        0.0,
        -0.0,
        -9.185560059103902e-06,
        -56.3805656433098,
        0.0,
        0.0,
        33.221370697021044,
        -5.41244828428662e-06,
        0.0,
        -409.92388916015625,
        69.44982147216797,
        0.0,
        1.0
      ],
      "name": "Cube.008"
    },
    {
      "mesh": 8,
      "name": "Cube.008_Material.009_0"
    },
    {
      "children": [
        30
      ],
      "matrix": [
        100.0,
        0.0,
        0.0,
        0.0,
        -0.0,
        -9.185560059103902e-06,
        -56.3805656433098,
        0.0,
        0.0,
        33.221370697021044,
        -5.41244828428662e-06,
        0.0,
        -308.6912536621094,
        137.82260131835938,
        0.0,
        1.0
      ],
      "name": "Cube.009"
    },
    {
      "mesh": 9,
      "name": "Cube.009_Material.010_0"
    },
    {
      "children": [
        32
      ],
      "matrix": [
        100.0,
        0.0,
        0.0,
        0.0,
        0.0,
        -9.185560059103902e-06,
        -56.3805656433098,
        0.0,
        0.0,
        33.221370697021044,
        -5.41244828428662e-06,
        0.0,
        305.178466796875,
        137.82260131835938,
        0.0,
        1.0
      ],
      "name": "Cube.010"
    },
    {
      "mesh": 10,
      "name": "Cube.010_Material.011_0"
    },
    {
      "children": [
        34
      ],
      "matrix": [
        100.0,
        0.0,
        0.0,
        0.0,
        -0.0,
        -9.185560059103902e-06,
        -56.3805656433098,
        0.0,
        0.0,
        33.221370697021044,
        -5.41244828428662e-06,
        0.0,
        -104.15458679199219,
        137.82260131835938,
        0.0,
        1.0
      ],
      "name": "Cube.011"
    },
    {
      "mesh": 11,
      "name": "Cube.011_Material.012_0"
    },
    {
      "children": [
        36
      ],
      "matrix": [
        100.0,
        0.0,
        0.0,
        0.0,
        0.0,
        -9.185560059103902e-06,
        -56.3805656433098,
        0.0,
        0.0,
        33.221370697021044,
        -5.41244828428662e-06,
        0.0,
        100.01451873779297,
        137.82260131835938,
        0.0,
        1.0
      ],
      "name": "Cube.012"
    },
    {
      "mesh": 12,
      "name": "Cube.012_Material.013_0"
    },
    {
      "children": [
        38
      ],
      "matrix": [
        100.0,
        0.0,
        0.0,
        0.0,
        -0.0,
        -9.185560059103902e-06,
        -56.3805656433098,
        0.0,
        0.0,
        33.221370697021044,
        -5.41244828428662e-06,
        0.0,
        -409.92388916015625,
        207.27243041992188,
        0.0,
        1.0
      ],
      "name": "Cube.013"
    },
    {
      "mesh": 13,
      "name": "Cube.013_Material.014_0"
    },
    {
      "children": [
        40
      ],
      "matrix": [
        100.0,
        0.0,
        0.0,
        0.0,
        -0.0,
        -9.185560059103902e-06,
        -56.3805656433098,
        0.0,
        0.0,
        33.221370697021044,
        -5.41244828428662e-06,
        0.0,
        -1.4816707372665405,
        207.27243041992188,
        0.0,
        1.0
      ],
      "name": "Cube.014"
    },
    {
      "mesh": 14,
      "name": "Cube.014_Material.016_0"
    },
    {
      "children": [
        42
      ],
      "matrix": [
        100.0,
        0.0,
        0.0,
        0.0,
        -0.0,
        -9.185560059103902e-06,
        -56.3805656433098,
        0.0,
        0.0,
        33.221370697021044,
        -5.41244828428662e-06,
        0.0,
        -205.56103515625,
        207.27243041992188,
        0.0,
        1.0
      ],
      "name": "Cube.015"
    },
    {
      "mesh": 15,
      "name": "Cube.015_Material.017_0"
    },
    {
      "children": [
        44
      ],
      "matrix": [
        100.0,
        0.0,
        0.0,
        0.0,
        0.0,
        -9.185560059103902e-06,
        -56.3805656433098,
        0.0,
        0.0,
        33.221370697021044,
        -5.41244828428662e-06,
        0.0,
        203.58352661132813,
        207.27243041992188,
        0.0,
        1.0
      ],
      "name": "Cube.016"
    },
    {
      "mesh": 16,
      "name": "Cube.016_Material.018_0"
    },
    {
      "children": [
        46
      ],
      "matrix": [
        100.0,
        0.0,
        0.0,
        0.0,
        0.0,
        -9.185560059103902e-06,
        -56.3805656433098,
        0.0,
        0.0,
        33.221370697021044,
        -5.41244828428662e-06,
        0.0,
        409.13604736328125,
        207.27243041992188,
        0.0,
        1.0
      ],
      "name": "Cube.017"
    },
    {
      "mesh": 17,
      "name": "Cube.017_Material.015_0"
    },
    {
      "children": [
        48
      ],
      "matrix": [
        100.0,
        0.0,
        0.0,
        0.0,
        0.0,
        -9.185560059103902e-06,
        -56.3805656433098,
        0.0,
        0.0,
        33.221370697021044,
        -5.41244828428662e-06,
        0.0,
        100.01451873779297,
        278.637939453125,
        0.0,
        1.0
      ],
      "name": "Cube.018"
    },
    {
      "mesh": 18,
      "name": "Cube.018_Material.019_0"
    },
    {
      "children": [
        50
      ],
      "matrix": [
        100.0,
        0.0,
        0.0,
        0.0,
        -0.0,
        -9.185560059103902e-06,
        -56.3805656433098,
        0.0,
        0.0,
        33.221370697021044,
        -5.41244828428662e-06,
        0.0,
        -104.15458679199219,
        278.637939453125,
        0.0,
        1.0
      ],
      "name": "Cube.019"
    },
    {
      "mesh": 19,
      "name": "Cube.019_Material.020_0"
    },
    {
      "children": [
        52
      ],
      "matrix": [
        100.0,
        0.0,
        0.0,
        0.0,
        0.0,
        -9.185560059103902e-06,
        -56.3805656433098,
        0.0,
        0.0,
        33.221370697021044,
        -5.41244828428662e-06,
        0.0,
        305.178466796875,
        278.637939453125,
        0.0,
        1.0
      ],
      "name": "Cube.020"
    },
    {
      "mesh": 20,
      "name": "Cube.020_Material.021_0"
    },
    {
      "children": [
        54
      ],
      "matrix": [
        100.0,
        0.0,
        0.0,
        0.0,
        -0.0,
        -9.185560059103902e-06,
        -56.3805656433098,
        0.0,
        0.0,
        33.221370697021044,
        -5.41244828428662e-06,
        0.0,
        -308.6912536621094,
        278.637939453125,
        0.0,
        1.0
      ],
      "name": "Cube.021"
    },
    {
      "mesh": 21,
      "name": "Cube.021_Material.022_0"
    },
    {
      "children": [
        56
      ],
      "matrix": [
        100.0,
        0.0,
        0.0,
        0.0,
        0.0,
        -9.185560059103902e-06,
        -56.3805656433098,
        0.0,
        0.0,
        33.221370697021044,
        -5.41244828428662e-06,
        0.0,
        409.13604736328125,
        347.1427001953125,
        0.0,
        1.0
      ],
      "name": "Cube.022"
    },
    {
      "mesh": 22,
      "name": "Cube.022_Material.026_0"
    },
    {
      "children": [
        58
      ],
      "matrix": [
        100.0,
        0.0,
        0.0,
        0.0,
        0.0,
        -9.185560059103902e-06,
        -56.3805656433098,
        0.0,
        0.0,
        33.221370697021044,
        -5.41244828428662e-06,
        0.0,
        203.58352661132813,
        347.1427001953125,
        0.0,
        1.0
      ],
      "name": "Cube.023"
    },
    {
      "mesh": 23,
      "name": "Cube.023_Material.023_0"
    },
    {
      "children": [
        60
      ],
      "matrix": [
        100.0,
        0.0,
        0.0,
        0.0,
        -0.0,
        -9.185560059103902e-06,
        -56.3805656433098,
        0.0,
        0.0,
        33.221370697021044,
        -5.41244828428662e-06,
        0.0,
        -205.56103515625,
        347.1427001953125,
        0.0,
        1.0
      ],
      "name": "Cube.024"
    },
    {
      "mesh": 24,
      "name": "Cube.024_Material.024_0"
    },
    {
      "children": [
        62
      ],
      "matrix": [
        100.0,
        0.0,
        0.0,
        0.0,
        -0.0,
        -9.185560059103902e-06,
        -56.3805656433098,
        0.0,
        0.0,
        33.221370697021044,
        -5.41244828428662e-06,
        0.0,
        -1.4816707372665405,
        347.1427001953125,
        0.0,
        1.0
      ],
      "name": "Cube.025"
    },
    {
      "mesh": 25,
      "name": "Cube.025_Material.025_0"
    },
    {
      "children": [
        64
      ],
      "matrix": [
        100.0,
        0.0,
        0.0,
        0.0,
        -0.0,
        -9.185560059103902e-06,
        -56.3805656433098,
        0.0,
        0.0,
        33.221370697021044,
        -5.41244828428662e-06,
        0.0,
        -409.92388916015625,
        347.1427001953125,
        0.0,
        1.0
      ],
      "name": "Cube.026"
    },
    {
      "mesh": 26,
      "name": "Cube.026_Material.027_0"
    },
    {
      "children": [
        66
      ],
      "matrix": [
        405.045166015625,
        0.0,
        0.0,
        0.0,
        -0.0,
        -7.548765456291642e-06,
        -46.33399200439392,
        0.0,
        0.0,
        199.85469055175517,
        -3.256046196433662e-05,
        0.0,
        -0.7413983345031738,
        174.83782958984375,
        0.0,
        1.0
      ],
      "name": "s"
    },
    {
      "mesh": 27,
      "name": "s__0"
    }
  ],
  "scene": 0,
  "scenes": [
    {
      "name": "Sketchfab_Scene",
      "nodes": [
        0
      ]
    }
  ]
}
